<svg width="4043" height="4043" viewBox="0 0 4043 4043" fill="none" xmlns="http://www.w3.org/2000/svg">
<path d="M1645.4 1960.62C1774.34 1989.62 1903.69 1992.29 2033.5 1967.13C2037.04 1966.43 2040.59 1965.56 2044.19 1965.16C2061.33 1963.41 2075.05 1972.94 2077.83 1988.34C2080.68 2004.2 2071.97 2018.91 2054.77 2021.81C2016.12 2028.32 1977.42 2035.58 1938.44 2038.31C1672.71 2056.85 1432.61 1987.93 1223.43 1821.22C1118.43 1737.55 1038.88 1633.89 996.577 1504.71C932.95 1310.11 989.953 1110.46 1146.2 977.157C1264.1 876.631 1402.75 825.206 1554.52 806.612C1728.9 785.287 1897.53 809.982 2060.34 875.353C2081.55 883.895 2089.98 898.305 2083.18 915.215C2076.38 932.182 2060.05 937.005 2039.08 928.812C1853.83 856.352 1663.94 835.259 1468.99 880.292C1343.42 909.288 1229.88 963.327 1143.12 1061.12C1016.8 1203.49 995.938 1364.85 1071.07 1537.66C1128.65 1670.15 1228.83 1765.79 1349.58 1841.21C1441.04 1898.39 1540.29 1936.86 1645.4 1960.62Z" fill="black"/>
<path d="M1623.67 1341.96C1622.8 1234.92 1596.71 1133.93 1552.95 1036.95C1548.48 1027.07 1543.48 1017.37 1539.24 1007.37C1530.52 986.745 1536.22 967.279 1553.24 958.621C1571.32 949.44 1593.63 956.064 1601.88 977.448C1626.52 1041.54 1655.11 1104.94 1671.26 1171.29C1716.52 1357.12 1687.18 1535.39 1603.22 1705.71C1592.06 1728.31 1572.48 1736.27 1553.65 1726.97C1535.17 1717.79 1529.71 1697.8 1540.87 1674.62C1580.15 1593.04 1608.5 1508.2 1618.44 1417.9C1621.23 1392.68 1621.98 1367.29 1623.67 1341.96Z" fill="black"/>
<path d="M1528.26 1341.08C1527.91 1448.76 1496.82 1547.6 1449.81 1642.2C1439.88 1662.13 1420.18 1668.46 1402.28 1659.45C1384.56 1650.51 1379.39 1632.32 1387.35 1610.99C1407.16 1558.17 1430.99 1506.4 1444.99 1452.07C1476.48 1330.1 1452.2 1213.42 1400.19 1101.16C1395.95 1091.98 1391.18 1082.97 1387.35 1073.56C1378.81 1052.64 1385.02 1034.22 1403.09 1025.44C1420.93 1016.79 1440.05 1023.53 1450.1 1043.75C1496.88 1137.77 1527.56 1235.97 1528.26 1341.08Z" fill="black"/>
<path d="M1365.03 1342.42C1365.62 1426.44 1338.89 1503.09 1298.73 1575.78C1287.75 1595.65 1268.52 1601.46 1250.97 1591.99C1233.65 1582.69 1229.35 1563.93 1237.61 1543.06C1255.33 1498.09 1277.06 1453.93 1288.16 1407.33C1308.44 1321.85 1287.69 1240.67 1248.36 1163.68C1244.75 1156.59 1240.69 1149.68 1237.37 1142.41C1228.13 1122.19 1233.83 1102.73 1251.32 1093.78C1268.58 1085 1288.22 1091.45 1298.97 1110.8C1339 1182.74 1365.32 1258.69 1365.03 1342.42Z" fill="black"/>
<path d="M1204.49 1343.87C1204.25 1395.01 1191.41 1444.28 1164.74 1489.72C1152.65 1510.35 1133.19 1517.21 1115.52 1507.74C1097.45 1498.03 1092.34 1478.1 1103.9 1456.95C1145.45 1380.71 1145.1 1304.88 1103.26 1228.88C1091.7 1207.84 1096.93 1188.2 1115.17 1178.15C1133.25 1168.21 1152.19 1174.55 1164.51 1195.35C1191.29 1240.62 1204.19 1289.83 1204.49 1343.87Z" fill="black"/>
<path d="M2390.04 2062.02C2337.52 2051.5 2286.56 2041.04 2235.48 2031.17C2151.46 2014.9 2067.38 1999.09 1983.41 1982.82C1926.47 1971.78 1898.05 1930 1909.38 1872.82C1979.58 1518.66 2050 1164.55 2120.43 810.447C2131.29 755.71 2142.57 701.031 2153.95 646.41C2164.41 596.264 2205.84 567.152 2254.94 576.856C2469.83 619.274 2684.59 661.983 2899.29 705.099C2956.47 716.604 2981.63 756.872 2970.19 814.224C2932.76 1001.97 2895.81 1189.83 2857.86 1377.46C2855.02 1391.4 2858.85 1398.44 2869.02 1406.45C2915.22 1442.89 2960.77 1480.08 3006.68 1516.74C3061.99 1560.9 3082.22 1616.57 3066.47 1686.47C3040.79 1800.36 3016.5 1914.55 2992.32 2028.73C2977.04 2101.07 2980.18 2172.77 3001.51 2243.96C3004.58 2254.18 3001.85 2268.59 2996.74 2278.47C2966.12 2338.21 2914.81 2375.74 2854.96 2401.48C2754.78 2444.54 2651.29 2454.42 2547.34 2418.22C2515.38 2407.06 2487.43 2384.11 2457.91 2366.1C2448.38 2360.29 2447.22 2352.73 2453.5 2342.27C2475.93 2304.79 2475.11 2270.51 2445.07 2234.77C2404.28 2186.2 2383.01 2128.84 2390.04 2062.02ZM2406.49 642.227C2355.7 632.174 2305.96 622.412 2256.22 612.476C2216.83 604.573 2194.92 618.519 2187.08 657.974C2106.19 1065.6 2025.42 1473.28 1944.77 1880.96C1937.45 1918.09 1953.54 1940.69 1991.37 1948.19C2117.99 1973.23 2244.66 1998.28 2371.28 2023.32C2379.53 2024.95 2387.84 2026.23 2397.07 2027.8C2409.68 1974.11 2413.98 1922.39 2408 1869.92C2399.75 1797.23 2371.57 1731.51 2337.63 1667.76C2319.56 1633.83 2299.8 1600.65 2284.64 1565.44C2261.63 1511.92 2291.61 1457.24 2349.43 1447.36C2370.11 1443.82 2393.24 1445.27 2413.58 1450.67C2486.97 1470.14 2536.88 1518.83 2570.12 1585.54C2595.69 1636.79 2619.04 1689.2 2645.83 1739.82C2659.14 1764.92 2678.14 1787 2695.51 1811.87C2722.01 1789.27 2744.85 1774.51 2751.41 1740.28C2801.09 1482.46 2853.16 1225.16 2904.58 967.686C2915.22 914.343 2926.37 861.117 2936.77 807.716C2944.44 768.378 2929.86 746.704 2890.69 738.278C2869.43 733.688 2848.04 729.794 2826.66 725.669C2797.08 719.916 2767.57 714.28 2738.51 708.643C2716.9 768.029 2686.74 791.795 2637.06 784.125C2581.22 775.525 2525.72 763.845 2470.64 751.294C2434.55 743.101 2410.27 712.827 2406.66 676.917C2405.56 666.167 2406.49 655.301 2406.49 642.227ZM2844.85 1688.28C2816.9 1745.63 2777.56 1790.25 2729.74 1828.02C2729.74 1830.46 2729.74 1832.9 2729.74 1835.34C2763.32 1844.93 2796.91 1854.46 2831.25 1864.28C2831.25 1871.37 2831.25 1881.19 2831.25 1892.17C2774.77 1892.23 2726.66 1873.29 2682.9 1840.86C2641.59 1810.24 2619.68 1766.02 2597.78 1721.69C2574.36 1674.21 2553.09 1625.58 2527 1579.67C2496.15 1525.28 2448.33 1491.35 2386.03 1480.02C2377.03 1478.39 2367.09 1478.91 2358.09 1480.66C2319.33 1488.27 2300.85 1519.94 2317.41 1555.21C2338.04 1599.14 2362.38 1641.32 2384.58 1684.44C2444.08 1799.9 2461.92 1920.41 2428.45 2047.2C2415.67 2095.55 2424.5 2140.82 2450.13 2182.94C2460.64 2200.26 2474.65 2215.6 2484.12 2233.44C2492.37 2248.95 2500.62 2266.44 2501.38 2283.41C2502.42 2305.78 2496.21 2328.5 2492.49 2355.93C2513 2365.75 2535.37 2380.28 2559.83 2387.6C2676.86 2422.4 2788.72 2407.24 2891.62 2342.45C2918.76 2325.36 2938.92 2296.48 2960.37 2271.38C2965.54 2265.34 2966.06 2252.15 2963.79 2243.49C2944.91 2171.26 2942 2098.8 2957.75 2025.76C2983.38 1906.7 3009.18 1787.7 3034.86 1668.63C3045.26 1620.46 3028.93 1581.01 2992.38 1550.27C2949.03 1513.84 2904.35 1479.09 2860.07 1443.76C2856.47 1440.85 2852.05 1438.99 2846.65 1435.86C2828.35 1526.21 2810.45 1614.65 2792.55 1703.09C2793.95 1703.62 2795.28 1704.14 2796.68 1704.6C2803.01 1694.49 2809.34 1684.38 2816.49 1672.99C2826.02 1678.22 2834.74 1682.87 2844.85 1688.28ZM2702.78 701.322C2615.96 684.122 2530.49 667.213 2445.25 650.304C2436.06 683.425 2450.01 711.665 2480.17 718.464C2533.1 730.376 2586.39 741.009 2639.9 750.074C2674.13 755.826 2694.12 739.731 2702.78 701.322Z" fill="black"/>
<path d="M2724 1174C2724 1329.19 2598.19 1455 2443 1455C2287.81 1455 2162 1329.19 2162 1174C2162 1018.81 2287.81 893 2443 893C2598.19 893 2724 1018.81 2724 1174Z" stroke="black" stroke-width="28"/>
<rect x="2352.26" y="956" width="470.656" height="43" transform="rotate(62.1641 2352.26 956)" fill="#FF0000"/>
<rect x="2225" y="1265.01" width="470.656" height="43" transform="rotate(-27.8359 2225 1265.01)" fill="#FF0000"/>
<path d="M1465 2786H1442.43L1351.66 2648.36V2786H1329.1V2612.9H1351.66L1442.43 2750.29V2612.9H1465V2786ZM1601.18 2613.14V2631.5H1526.04V2689.78H1587.05V2708.13H1526.04V2786H1503.47V2613.14H1601.18ZM1620.01 2699.45C1620.01 2682.58 1623.81 2667.46 1631.42 2654.06C1639.02 2640.51 1649.35 2629.93 1662.42 2622.32C1675.64 2614.71 1690.27 2610.91 1706.31 2610.91C1725.16 2610.91 1741.61 2615.46 1755.66 2624.55C1769.72 2633.65 1779.97 2646.54 1786.42 2663.24H1759.38C1754.59 2652.82 1747.65 2644.81 1738.55 2639.18C1729.62 2633.56 1718.88 2630.75 1706.31 2630.75C1694.24 2630.75 1683.41 2633.56 1673.82 2639.18C1664.23 2644.81 1656.71 2652.82 1651.26 2663.24C1645.8 2673.49 1643.07 2685.56 1643.07 2699.45C1643.07 2713.17 1645.8 2725.24 1651.26 2735.66C1656.71 2745.91 1664.23 2753.84 1673.82 2759.46C1683.41 2765.09 1694.24 2767.9 1706.31 2767.9C1718.88 2767.9 1729.62 2765.17 1738.55 2759.71C1747.65 2754.09 1754.59 2746.07 1759.38 2735.66H1786.42C1779.97 2752.19 1769.72 2765 1755.66 2774.1C1741.61 2783.02 1725.16 2787.49 1706.31 2787.49C1690.27 2787.49 1675.64 2783.77 1662.42 2776.33C1649.35 2768.72 1639.02 2758.22 1631.42 2744.83C1623.81 2731.44 1620.01 2716.31 1620.01 2699.45ZM1952.34 2647.62C1968.88 2647.62 1982.27 2652.66 1992.52 2662.74C2002.77 2672.66 2007.9 2687.05 2007.9 2705.9V2786H1985.58V2709.12C1985.58 2695.56 1982.19 2685.23 1975.41 2678.12C1968.63 2670.85 1959.37 2667.21 1947.63 2667.21C1935.73 2667.21 1926.22 2670.93 1919.11 2678.37C1912.17 2685.81 1908.7 2696.64 1908.7 2710.86V2786H1886.13V2650.1H1908.7V2669.44C1913.16 2662.5 1919.19 2657.12 1926.8 2653.32C1934.57 2649.52 1943.08 2647.62 1952.34 2647.62ZM2104.03 2788.23C2091.3 2788.23 2079.73 2785.34 2069.31 2779.55C2059.06 2773.77 2050.96 2765.58 2045.01 2755C2039.22 2744.25 2036.33 2731.85 2036.33 2717.8C2036.33 2703.91 2039.3 2691.68 2045.26 2681.1C2051.37 2670.35 2059.64 2662.17 2070.06 2656.54C2080.47 2650.76 2092.13 2647.86 2105.02 2647.86C2117.92 2647.86 2129.58 2650.76 2139.99 2656.54C2150.41 2662.17 2158.59 2670.27 2164.54 2680.85C2170.66 2691.43 2173.72 2703.75 2173.72 2717.8C2173.72 2731.85 2170.58 2744.25 2164.3 2755C2158.18 2765.58 2149.83 2773.77 2139.25 2779.55C2128.67 2785.34 2116.93 2788.23 2104.03 2788.23ZM2104.03 2768.39C2112.13 2768.39 2119.74 2766.49 2126.85 2762.69C2133.96 2758.89 2139.66 2753.18 2143.96 2745.58C2148.42 2737.97 2150.66 2728.71 2150.66 2717.8C2150.66 2706.89 2148.51 2697.63 2144.21 2690.02C2139.91 2682.42 2134.29 2676.8 2127.34 2673.16C2120.4 2669.36 2112.88 2667.46 2104.78 2667.46C2096.51 2667.46 2088.9 2669.36 2081.96 2673.16C2075.18 2676.8 2069.73 2682.42 2065.59 2690.02C2061.46 2697.63 2059.39 2706.89 2059.39 2717.8C2059.39 2728.88 2061.38 2738.22 2065.34 2745.82C2069.48 2753.43 2074.93 2759.13 2081.71 2762.94C2088.49 2766.57 2095.93 2768.39 2104.03 2768.39ZM2230.92 2668.7V2748.8C2230.92 2755.41 2232.33 2760.13 2235.14 2762.94C2237.95 2765.58 2242.82 2766.9 2249.77 2766.9H2266.38V2786H2246.05C2233.48 2786 2224.06 2783.11 2217.78 2777.32C2211.49 2771.53 2208.35 2762.03 2208.35 2748.8V2668.7H2190.74V2650.1H2208.35V2615.87H2230.92V2650.1H2266.38V2668.7H2230.92ZM1377.21 3160.23C1366.79 3160.23 1357.45 3158.5 1349.18 3155.02C1340.92 3151.39 1334.39 3146.43 1329.59 3140.14C1324.8 3133.7 1322.15 3126.34 1321.66 3118.07H1344.97C1345.63 3124.85 1348.77 3130.39 1354.39 3134.69C1360.18 3138.99 1367.7 3141.14 1376.96 3141.14C1385.56 3141.14 1392.34 3139.23 1397.3 3135.43C1402.26 3131.63 1404.74 3126.83 1404.74 3121.05C1404.74 3115.1 1402.09 3110.71 1396.8 3107.9C1391.51 3104.93 1383.33 3102.03 1372.25 3099.22C1362.16 3096.58 1353.9 3093.93 1347.45 3091.29C1341.17 3088.48 1335.71 3084.43 1331.08 3079.14C1326.62 3073.68 1324.38 3066.57 1324.38 3057.81C1324.38 3050.86 1326.45 3044.5 1330.58 3038.71C1334.72 3032.93 1340.59 3028.38 1348.19 3025.07C1355.8 3021.6 1364.48 3019.86 1374.23 3019.86C1389.28 3019.86 1401.43 3023.67 1410.69 3031.27C1419.95 3038.88 1424.91 3049.29 1425.57 3062.52H1403C1402.5 3055.41 1399.61 3049.71 1394.32 3045.41C1389.19 3041.11 1382.25 3038.96 1373.49 3038.96C1365.39 3038.96 1358.94 3040.7 1354.14 3044.17C1349.35 3047.64 1346.95 3052.19 1346.95 3057.81C1346.95 3062.27 1348.36 3065.99 1351.17 3068.97C1354.14 3071.78 1357.78 3074.09 1362.08 3075.91C1366.54 3077.57 1372.66 3079.47 1380.43 3081.62C1390.19 3084.26 1398.12 3086.91 1404.24 3089.55C1410.36 3092.03 1415.57 3095.83 1419.86 3100.96C1424.33 3106.09 1426.64 3112.78 1426.81 3121.05C1426.81 3128.49 1424.74 3135.18 1420.61 3141.14C1416.47 3147.09 1410.61 3151.8 1403 3155.27C1395.56 3158.58 1386.96 3160.23 1377.21 3160.23ZM1579.19 3022.1V3158H1556.63V3137.91C1552.33 3144.86 1546.29 3150.31 1538.52 3154.28C1530.92 3158.08 1522.48 3159.98 1513.23 3159.98C1502.64 3159.98 1493.14 3157.83 1484.71 3153.54C1476.27 3149.07 1469.58 3142.46 1464.62 3133.7C1459.82 3124.93 1457.43 3114.27 1457.43 3101.7V3022.1H1479.75V3098.73C1479.75 3112.12 1483.14 3122.45 1489.91 3129.73C1496.69 3136.84 1505.95 3140.39 1517.69 3140.39C1529.76 3140.39 1539.27 3136.67 1546.21 3129.23C1553.15 3121.79 1556.63 3110.96 1556.63 3096.74V3022.1H1579.19ZM1639.87 3047.14C1644.33 3039.37 1650.94 3032.93 1659.71 3027.8C1668.64 3022.51 1678.97 3019.86 1690.71 3019.86C1702.78 3019.86 1713.69 3022.76 1723.44 3028.54C1733.36 3034.33 1741.13 3042.51 1746.76 3053.1C1752.38 3063.51 1755.19 3075.66 1755.19 3089.55C1755.19 3103.27 1752.38 3115.51 1746.76 3126.26C1741.13 3137 1733.36 3145.35 1723.44 3151.3C1713.69 3157.26 1702.78 3160.23 1690.71 3160.23C1679.13 3160.23 1668.88 3157.67 1659.96 3152.54C1651.19 3147.25 1644.5 3140.72 1639.87 3132.95V3222.48H1617.3V3022.1H1639.87V3047.14ZM1732.12 3089.55C1732.12 3079.3 1730.06 3070.37 1725.92 3062.77C1721.79 3055.16 1716.17 3049.38 1709.06 3045.41C1702.12 3041.44 1694.43 3039.46 1686 3039.46C1677.73 3039.46 1670.04 3041.52 1662.93 3045.66C1655.99 3049.62 1650.37 3055.49 1646.07 3063.26C1641.93 3070.87 1639.87 3079.71 1639.87 3089.8C1639.87 3100.05 1641.93 3109.06 1646.07 3116.83C1650.37 3124.44 1655.99 3130.31 1662.93 3134.44C1670.04 3138.41 1677.73 3140.39 1686 3140.39C1694.43 3140.39 1702.12 3138.41 1709.06 3134.44C1716.17 3130.31 1721.79 3124.44 1725.92 3116.83C1730.06 3109.06 1732.12 3099.97 1732.12 3089.55ZM1807.46 3047.14C1811.92 3039.37 1818.54 3032.93 1827.3 3027.8C1836.23 3022.51 1846.56 3019.86 1858.3 3019.86C1870.37 3019.86 1881.28 3022.76 1891.04 3028.54C1900.96 3034.33 1908.73 3042.51 1914.35 3053.1C1919.97 3063.51 1922.78 3075.66 1922.78 3089.55C1922.78 3103.27 1919.97 3115.51 1914.35 3126.26C1908.73 3137 1900.96 3145.35 1891.04 3151.3C1881.28 3157.26 1870.37 3160.23 1858.3 3160.23C1846.73 3160.23 1836.48 3157.67 1827.55 3152.54C1818.79 3147.25 1812.09 3140.72 1807.46 3132.95V3222.48H1784.89V3022.1H1807.46V3047.14ZM1899.72 3089.55C1899.72 3079.3 1897.65 3070.37 1893.52 3062.77C1889.38 3055.16 1883.76 3049.38 1876.65 3045.41C1869.71 3041.44 1862.02 3039.46 1853.59 3039.46C1845.32 3039.46 1837.63 3041.52 1830.52 3045.66C1823.58 3049.62 1817.96 3055.49 1813.66 3063.26C1809.53 3070.87 1807.46 3079.71 1807.46 3089.8C1807.46 3100.05 1809.53 3109.06 1813.66 3116.83C1817.96 3124.44 1823.58 3130.31 1830.52 3134.44C1837.63 3138.41 1845.32 3140.39 1853.59 3140.39C1862.02 3140.39 1869.71 3138.41 1876.65 3134.44C1883.76 3130.31 1889.38 3124.44 1893.52 3116.83C1897.65 3109.06 1899.72 3099.97 1899.72 3089.55ZM2011.76 3160.23C1999.03 3160.23 1987.45 3157.34 1977.04 3151.55C1966.79 3145.77 1958.69 3137.58 1952.73 3127C1946.95 3116.25 1944.05 3103.85 1944.05 3089.8C1944.05 3075.91 1947.03 3063.68 1952.98 3053.1C1959.1 3042.35 1967.37 3034.17 1977.78 3028.54C1988.2 3022.76 1999.85 3019.86 2012.75 3019.86C2025.65 3019.86 2037.3 3022.76 2047.72 3028.54C2058.13 3034.17 2066.32 3042.27 2072.27 3052.85C2078.39 3063.43 2081.45 3075.75 2081.45 3089.8C2081.45 3103.85 2078.31 3116.25 2072.02 3127C2065.91 3137.58 2057.56 3145.77 2046.97 3151.55C2036.39 3157.34 2024.65 3160.23 2011.76 3160.23ZM2011.76 3140.39C2019.86 3140.39 2027.47 3138.49 2034.57 3134.69C2041.68 3130.89 2047.39 3125.18 2051.69 3117.58C2056.15 3109.97 2058.38 3100.71 2058.38 3089.8C2058.38 3078.89 2056.23 3069.63 2051.93 3062.02C2047.64 3054.42 2042.01 3048.8 2035.07 3045.16C2028.13 3041.36 2020.6 3039.46 2012.5 3039.46C2004.24 3039.46 1996.63 3041.36 1989.69 3045.16C1982.91 3048.8 1977.45 3054.42 1973.32 3062.02C1969.19 3069.63 1967.12 3078.89 1967.12 3089.8C1967.12 3100.88 1969.1 3110.22 1973.07 3117.82C1977.2 3125.43 1982.66 3131.13 1989.44 3134.94C1996.22 3138.57 2003.66 3140.39 2011.76 3140.39ZM2133.69 3044.17C2137.66 3036.4 2143.28 3030.36 2150.55 3026.06C2157.99 3021.77 2167 3019.62 2177.58 3019.62V3042.93H2171.63C2146.34 3042.93 2133.69 3056.65 2133.69 3084.1V3158H2111.12V3022.1H2133.69V3044.17ZM2231.16 3040.7V3120.8C2231.16 3127.41 2232.57 3132.13 2235.38 3134.94C2238.19 3137.58 2243.07 3138.9 2250.01 3138.9H2266.63V3158H2246.29C2233.73 3158 2224.3 3155.11 2218.02 3149.32C2211.74 3143.53 2208.6 3134.03 2208.6 3120.8V3040.7H2190.99V3022.1H2208.6V2987.87H2231.16V3022.1H2266.63V3040.7H2231.16ZM2417.97 3084.84C2417.97 3089.14 2417.72 3093.69 2417.23 3098.48H2308.6C2309.43 3111.87 2313.98 3122.37 2322.24 3129.98C2330.68 3137.42 2340.84 3141.14 2352.75 3141.14C2362.5 3141.14 2370.6 3138.9 2377.05 3134.44C2383.66 3129.81 2388.29 3123.69 2390.94 3116.09H2415.24C2411.61 3129.15 2404.33 3139.81 2393.42 3148.08C2382.51 3156.18 2368.95 3160.23 2352.75 3160.23C2339.85 3160.23 2328.28 3157.34 2318.03 3151.55C2307.94 3145.77 2300.01 3137.58 2294.22 3127C2288.43 3116.25 2285.54 3103.85 2285.54 3089.8C2285.54 3075.75 2288.35 3063.43 2293.97 3052.85C2299.59 3042.27 2307.45 3034.17 2317.53 3028.54C2327.78 3022.76 2339.52 3019.86 2352.75 3019.86C2365.64 3019.86 2377.05 3022.67 2386.97 3028.3C2396.89 3033.92 2404.5 3041.69 2409.79 3051.61C2415.24 3061.36 2417.97 3072.44 2417.97 3084.84ZM2394.66 3080.13C2394.66 3071.53 2392.76 3064.17 2388.96 3058.06C2385.15 3051.77 2379.94 3047.06 2373.33 3043.92C2366.88 3040.61 2359.69 3038.96 2351.76 3038.96C2340.35 3038.96 2330.59 3042.6 2322.49 3049.87C2314.56 3057.15 2310.01 3067.23 2308.85 3080.13H2394.66ZM2439.33 3089.55C2439.33 3075.66 2442.14 3063.51 2447.76 3053.1C2453.38 3042.51 2461.07 3034.33 2470.82 3028.54C2480.74 3022.76 2491.82 3019.86 2504.06 3019.86C2514.64 3019.86 2524.47 3022.34 2533.57 3027.3C2542.66 3032.1 2549.61 3038.46 2554.4 3046.4V2974.48H2577.22V3158H2554.4V3132.46C2549.94 3140.56 2543.32 3147.25 2534.56 3152.54C2525.8 3157.67 2515.55 3160.23 2503.81 3160.23C2491.74 3160.23 2480.74 3157.26 2470.82 3151.3C2461.07 3145.35 2453.38 3137 2447.76 3126.26C2442.14 3115.51 2439.33 3103.27 2439.33 3089.55ZM2554.4 3089.8C2554.4 3079.55 2552.33 3070.62 2548.2 3063.02C2544.07 3055.41 2538.45 3049.62 2531.34 3045.66C2524.39 3041.52 2516.7 3039.46 2508.27 3039.46C2499.84 3039.46 2492.15 3041.44 2485.21 3045.41C2478.26 3049.38 2472.73 3055.16 2468.59 3062.77C2464.46 3070.37 2462.39 3079.3 2462.39 3089.55C2462.39 3099.97 2464.46 3109.06 2468.59 3116.83C2472.73 3124.44 2478.26 3130.31 2485.21 3134.44C2492.15 3138.41 2499.84 3140.39 2508.27 3140.39C2516.7 3140.39 2524.39 3138.41 2531.34 3134.44C2538.45 3130.31 2544.07 3124.44 2548.2 3116.83C2552.33 3109.06 2554.4 3100.05 2554.4 3089.8Z" fill="white"/>
</svg>
