<svg width="43" height="40" viewBox="0 0 43 40" fill="none" xmlns="http://www.w3.org/2000/svg">
<path d="M43 9.08333C42.8573 9.09167 42.7985 9.225 42.7229 9.3C40.5309 11.4667 38.3473 13.6417 36.1553 15.8083C35.6682 16.2917 35.349 16.85 35.1811 17.5167C34.2656 21.1083 32.4852 24.2167 29.8145 26.8083C29.6297 26.9917 29.5625 27.175 29.5625 27.425C29.5709 29.9 29.5709 32.3667 29.5709 34.8417C29.5709 37.8083 27.3705 39.9917 24.3723 39.9917C17.9727 39.9917 11.5815 39.9917 5.18186 39.9917C2.21721 39.9917 0.00842285 37.8 0.00842285 34.8667C0.00842285 31.6167 0.00842285 28.3667 0.00842285 25.1167C0.00842285 22.175 2.21721 20 5.18186 19.9917C6.08889 19.9917 7.00432 19.975 7.91135 20C8.22209 20.0083 8.40686 19.9167 8.59163 19.6583C10.2545 17.325 11.8838 14.9667 13.6139 12.6833C15.9906 9.55833 19.1989 7.825 23.1293 7.39167C23.9356 7.3 24.7502 7.39167 25.5481 7.2C26.4551 6.98333 27.253 6.58333 27.9164 5.93333C29.8817 4 31.8385 2.05 33.7953 0.1C33.8205 0.075 33.8289 0.0333333 33.8457 0C33.8709 0 33.9045 0 33.9297 0C34.0221 0.1 34.0977 0.208333 34.1985 0.308333C37.0119 3.1 39.8254 5.89167 42.6389 8.68333C42.7565 8.8 42.8824 8.9 43 9.00833C43 9.025 43 9.05833 43 9.08333ZM19.0813 23.3333C18.8881 23.3333 18.7705 23.3333 18.6446 23.3333C14.1766 23.3333 9.71702 23.3333 5.24905 23.3333C4.02288 23.3333 3.3594 23.9917 3.3594 25.2083C3.3594 28.375 3.3594 31.5417 3.3594 34.7083C3.3594 36.0333 4.00608 36.6667 5.34143 36.6667C11.4471 36.6667 17.5444 36.6667 23.65 36.6667C23.9608 36.6667 24.2631 36.675 24.5739 36.6583C25.4137 36.625 26.1612 36.0083 26.1864 35.1917C26.2367 33.6167 26.2031 32.0417 26.2031 30.4417C23.4653 32.5167 20.5594 31.5583 19.1737 30.025C17.4436 28.1333 17.3848 25.525 19.0813 23.3333ZM12.4633 20C15.7723 20 18.9889 20 22.2055 20.0083C22.4155 20.0083 22.533 19.9 22.6674 19.775C23.4653 18.975 24.2799 18.1917 25.0694 17.3833C25.2625 17.1833 25.3717 17.15 25.5817 17.3667C26.1696 17.9833 26.7658 18.5833 27.3957 19.1583C27.6561 19.4 27.6729 19.525 27.4041 19.7917C25.5229 21.6333 23.6584 23.5 21.7856 25.35C21.374 25.7583 21.1305 26.225 21.2061 26.8C21.2901 27.475 21.6596 27.9583 22.3063 28.1917C22.9781 28.425 23.5828 28.275 24.0783 27.7833C25.2121 26.6667 26.3291 25.5417 27.4629 24.425C29.6297 22.3 31.1246 19.7833 31.8721 16.85C32.1996 15.5667 32.7539 14.4333 33.7197 13.5083C33.8877 13.35 33.8625 13.2667 33.7114 13.1167C32.3676 11.8 31.0323 10.475 29.7053 9.14167C29.5541 8.99167 29.4617 8.99167 29.2938 9.10833C27.7905 10.175 26.1024 10.6333 24.2547 10.6667C21.6764 10.7083 19.434 11.625 17.5192 13.3333C16.4106 14.3167 15.6547 15.575 14.7897 16.75C14.017 17.8083 13.2696 18.875 12.4633 20ZM38.2213 9.03333C38.1541 8.95833 38.1037 8.9 38.0449 8.84167C36.7348 7.54167 35.4162 6.24167 34.1061 4.925C33.9465 4.76667 33.8541 4.74167 33.6862 4.91667C33.1823 5.44167 32.6699 5.95 32.1492 6.45C31.9813 6.60833 31.9729 6.7 32.1492 6.875C33.4678 8.175 34.778 9.475 36.0881 10.7833C36.2477 10.9417 36.3317 10.9417 36.4828 10.7833C36.9951 10.2583 37.5242 9.74167 38.0449 9.225C38.1037 9.15833 38.1625 9.1 38.2213 9.03333Z" fill="white"/>
<path d="M43 30C39.7834 30 36.5584 29.9917 33.3418 30.0083C32.9891 30.0083 32.8967 29.9333 32.9135 29.5833C32.9387 28.725 32.9387 27.8583 32.9135 27C32.9051 26.725 32.9891 26.6583 33.2578 26.6583C36.508 26.6667 39.7498 26.6667 43 26.6667C43 27.775 43 28.8917 43 30Z" fill="white"/>
<path d="M36.3233 33.3333C37.3311 33.3333 38.3389 33.3417 39.3467 33.325C39.5819 33.325 39.6491 33.3833 39.6491 33.625C39.6323 34.5417 39.6323 35.4583 39.6491 36.375C39.6491 36.6083 39.5819 36.675 39.3467 36.675C37.3059 36.6667 35.2651 36.6667 33.2159 36.675C32.9807 36.675 32.9135 36.6083 32.9135 36.375C32.9303 35.4583 32.9303 34.5417 32.9135 33.625C32.9135 33.3917 32.9807 33.325 33.2159 33.325C34.2573 33.3333 35.2903 33.3333 36.3233 33.3333Z" fill="white"/>
<path d="M9.44825 26.6667C10.4561 26.6667 11.4639 26.675 12.4717 26.6583C12.6984 26.6583 12.7824 26.7083 12.774 26.95C12.7572 27.8667 12.7572 28.7833 12.774 29.7C12.774 29.925 12.7236 30.0083 12.4801 30C10.4393 29.9917 8.39844 29.9917 6.34923 30C6.11407 30 6.03848 29.95 6.04688 29.7083C6.06368 28.8083 6.06368 27.9 6.04688 27C6.03848 26.7333 6.10567 26.65 6.38282 26.6583C7.39903 26.675 8.42364 26.6667 9.44825 26.6667Z" fill="white"/>
</svg>
