<svg width="37" height="40" viewBox="0 0 37 40" fill="none" xmlns="http://www.w3.org/2000/svg">
<path d="M36.7993 5.55852C36.7993 4.01722 36.2328 2.60709 35.2065 1.59049C34.1884 0.56569 32.7762 0 31.2408 0C23.0796 0 14.4504 0 5.58312 0C2.40567 0 0.00821047 2.38573 0.00821047 5.55032C0.00821047 9.7561 0.00821047 13.9619 0.00821047 18.1595C0.00821047 24.423 0.00821047 30.8998 0 37.2699C0 38.2291 0.369471 38.926 1.09199 39.3441C1.83915 39.7704 2.64377 39.7377 3.48124 39.2294C4.11345 38.844 4.75386 38.4669 5.37786 38.0898C6.20712 37.5979 7.06922 37.0814 7.90668 36.5649C8.153 36.4091 8.29258 36.4091 8.53068 36.5567C9.97572 37.4421 11.4618 38.3275 12.8904 39.172L13.2024 39.3605C13.457 39.5081 13.7115 39.6475 13.966 39.7786C14.081 39.836 14.1959 39.9016 14.3109 39.959L14.3847 40H14.9266L14.9759 39.9836C16.0104 39.6721 16.8972 39.0982 17.7592 38.5489C18.178 38.2783 18.6213 37.9996 19.0647 37.7618C19.8119 37.3601 20.5262 36.9092 21.1173 36.5321C21.3226 36.4009 21.4458 36.4009 21.6674 36.5403C23.3259 37.5569 24.8203 38.4587 26.2242 39.2949C26.8154 39.6393 27.5051 39.7131 28.1209 39.4917C28.7284 39.2703 29.2046 38.7866 29.4263 38.1636C29.5495 37.811 29.5659 37.4585 29.5659 37.1224C29.5659 35.3597 29.5659 33.6052 29.5659 31.8426C29.5659 26.6038 29.5659 21.1765 29.5577 15.8475C29.5577 15.7327 29.5659 15.6753 29.5741 15.6507C29.5987 15.6425 29.648 15.6425 29.7383 15.6425C30.6497 15.6753 31.5693 15.6671 32.4642 15.6589C32.7105 15.6589 32.9486 15.6589 33.1949 15.6507C35.3543 15.6425 36.7993 14.1832 36.8075 12.0189C36.8075 9.42816 36.8075 7.43595 36.7993 5.55852ZM26.2653 6.47674C26.2735 6.76368 26.2817 7.05882 26.2817 7.33757C26.2735 14.4292 26.2735 21.6356 26.2735 28.6124C26.2735 30.908 26.2735 33.2035 26.2735 35.5073C25.2226 34.876 24.2619 34.3021 23.2931 33.72C22.0123 32.9494 20.715 32.9494 19.4342 33.7282C18.7035 34.1709 17.9481 34.6218 17.2256 35.0564C16.462 35.5073 15.682 35.9828 14.9102 36.4501C14.7953 36.5239 14.7788 36.5157 14.6721 36.4583C13.6048 35.8024 12.5128 35.1465 11.4536 34.5071C11.0102 34.2365 10.5669 33.9742 10.1153 33.7036C9.47488 33.3183 8.83447 33.1215 8.19405 33.1215C7.54542 33.1215 6.8968 33.3183 6.25638 33.7118C5.47638 34.1955 4.69639 34.6628 3.86713 35.1547C3.67008 35.2695 3.47303 35.3925 3.26777 35.5155V27.9893C3.26777 20.5206 3.26777 13.0519 3.26777 5.58311C3.26777 4.36975 3.94103 3.51711 5.07407 3.31215C5.20544 3.28756 5.35323 3.28756 5.45996 3.28756C11.9791 3.28756 18.4982 3.28756 25.0173 3.28756H26.5937C26.1996 4.33695 26.2325 5.42734 26.2653 6.47674ZM29.5659 9.62492C29.5659 9.29699 29.5659 8.97725 29.5659 8.64931C29.5659 8.31318 29.5659 7.96885 29.5741 7.63271C29.5823 6.87026 29.5905 6.09141 29.5577 5.31256C29.5166 4.41074 30.0585 3.41873 31.1752 3.28756C31.2491 3.27936 31.3312 3.27116 31.4051 3.27116C32.3328 3.27116 33.2114 3.95163 33.4577 4.90264C33.4987 5.07481 33.5234 5.25518 33.5234 5.50933C33.5234 7.6819 33.5234 9.85448 33.5234 12.0271C33.5234 12.3796 33.5234 12.3796 33.1785 12.3878C32.7844 12.3878 32.3903 12.3878 31.9962 12.3878C31.1998 12.3878 30.3787 12.3878 29.5659 12.396V12.3878C29.5659 11.4614 29.5659 10.5267 29.5659 9.62492Z" fill="white"/>
<path d="M18.9169 16.9133C15.8462 16.9133 12.521 16.9133 8.75237 16.9133C8.56353 16.9133 8.39111 16.9297 8.23511 16.9625C7.6029 17.1018 7.17596 17.4954 7.00354 18.1266C6.86396 18.6267 6.95428 19.135 7.25806 19.5368C7.57006 19.9467 8.0709 20.1926 8.62921 20.1926C9.84436 20.2008 11.0759 20.2008 12.2747 20.2008C12.8001 20.2008 13.3174 20.2008 13.8429 20.2008H14.2862C15.2222 20.2008 16.15 20.2008 17.086 20.2008C17.283 20.2008 17.4883 20.2008 17.6936 20.2008C17.8824 20.2008 18.0713 20.2008 18.2683 20.2008C18.5721 20.2008 18.8841 20.2008 19.1961 20.1844C19.7216 20.1598 20.1896 19.8975 20.4769 19.4712C20.7643 19.0449 20.83 18.5202 20.6658 18.0283C20.3866 17.315 19.7708 16.9215 18.9169 16.9133Z" fill="white"/>
<path d="M8.68667 13.1912C10.3041 13.1912 12.0037 13.1912 13.81 13.1912C15.4275 13.1912 17.127 13.1912 18.9415 13.1912C19.4752 13.1912 19.9432 13.0109 20.2716 12.6911C20.5672 12.396 20.7232 11.9943 20.7232 11.5433C20.7232 10.5677 20.0007 9.91187 18.9333 9.91187C17.7428 9.91187 16.5605 9.91187 15.37 9.91187H13.8839H12.7098C11.3961 9.91187 10.0742 9.91187 8.75235 9.91187H8.67845C8.49782 9.91187 8.29256 9.91186 8.07909 9.97745C7.30731 10.2234 6.81468 10.9859 6.92962 11.7565C7.08562 12.6255 7.76709 13.1912 8.68667 13.1912Z" fill="white"/>
<path d="M18.9415 24.1033C17.751 24.1033 16.5605 24.1033 15.37 24.1033H13.8511H12.3403C11.1334 24.1033 9.93466 24.1033 8.72772 24.1033C7.67678 24.1033 6.92963 24.7755 6.92963 25.7348C6.92963 26.1693 7.09384 26.571 7.38941 26.8661C7.71783 27.2023 8.19404 27.3826 8.72772 27.3826C10.3862 27.3826 12.0612 27.3826 13.7772 27.3826C15.4521 27.3826 17.1599 27.3826 18.9333 27.3826C19.9843 27.3826 20.715 26.7104 20.7232 25.743C20.7232 25.292 20.5672 24.8985 20.2716 24.6034C19.9514 24.2836 19.4752 24.1033 18.9415 24.1033Z" fill="white"/>
</svg>
